# Blender v2.92.0 OBJ File: ''
# www.blender.org
mtllib scene.mtl
o Pot_Mat.8_0
v 61.636757 -69.798355 -61.636772
v 61.636757 -10.167439 -61.636772
v 87.167542 -10.167439 0.000000
v 87.167542 -70.201675 0.000000
v 61.636757 10.167439 -61.636772
v 61.636757 70.000015 -61.636772
v 87.167542 70.000015 0.000000
v 87.167542 10.167439 0.000000
v 0.000000 -69.798355 -87.167564
v 0.000000 -10.167439 -87.167564
v 0.000000 10.167439 -87.167564
v 0.000000 70.000015 -87.167564
v -61.636757 -69.798355 -61.636772
v -61.636757 -10.167439 -61.636772
v -61.636757 10.167439 -61.636772
v -61.636757 70.000015 -61.636772
v -87.167542 -69.798355 -0.000000
v -87.167542 -10.167439 -0.000000
v -87.167542 10.167439 -0.000000
v -87.167542 70.000015 -0.000000
v -61.636757 -69.798355 61.636772
v -61.636757 -10.167439 61.636772
v -61.636757 10.167439 61.636772
v -61.636757 70.000015 61.636772
v -1.096473 -69.798355 87.167564
v -0.000000 -10.167439 87.167564
v -0.000000 10.167439 87.167564
v -0.000000 70.000015 87.167564
v 62.733231 -69.798355 61.636772
v 61.636757 -10.167439 61.636772
v 61.636757 10.167439 61.636772
v 61.636757 70.000015 61.636772
v 87.167542 -70.201675 0.000000
v 87.167542 -10.167439 0.000000
v 87.167542 10.167439 0.000000
v 87.167542 70.000015 0.000000
v 0.000000 70.000015 -87.167564
v 0.000000 70.000015 -75.369476
v 53.294258 70.000015 -53.294270
v 61.636757 70.000015 -61.636772
v -61.636757 70.000015 -61.636772
v -53.294258 70.000015 -53.294270
v 0.000000 70.000015 -75.369476
v 0.000000 70.000015 -87.167564
v -87.167542 70.000015 -0.000000
v -75.369461 70.000015 -0.000000
v -53.294258 70.000015 -53.294270
v -61.636757 70.000015 -61.636772
v -61.636757 70.000015 61.636772
v -53.294258 70.000015 53.294270
v -75.369461 70.000015 -0.000000
v -87.167542 70.000015 -0.000000
v -0.000000 70.000015 87.167564
v -0.000000 70.000015 75.369476
v -53.294258 70.000015 53.294270
v -61.636757 70.000015 61.636772
v 61.636757 70.000015 61.636772
v 53.294258 70.000015 53.294270
v -0.000000 70.000015 75.369476
v -0.000000 70.000015 87.167564
v 87.167542 70.000015 0.000000
v 75.369461 70.000015 -0.000000
v 53.294258 70.000015 53.294270
v 61.636757 70.000015 61.636772
v 61.636757 70.000015 -61.636772
v 53.294258 70.000015 -53.294270
v 75.369461 70.000015 -0.000000
v 87.167542 70.000015 0.000000
v 0.000000 70.000015 -75.369476
v 0.000000 46.541428 -75.369476
v 53.294258 46.541428 -53.294270
v 53.294258 70.000015 -53.294270
v -53.294258 70.000015 -53.294270
v -53.294258 46.541428 -53.294270
v 0.000000 46.541428 -75.369476
v 0.000000 70.000015 -75.369476
v -75.369461 70.000015 -0.000000
v -75.369461 46.541428 -0.000000
v -53.294258 46.541428 -53.294270
v -53.294258 70.000015 -53.294270
v -53.294258 70.000015 53.294270
v -53.294258 46.541428 53.294270
v -75.369461 46.541428 -0.000000
v -75.369461 70.000015 -0.000000
v -0.000000 70.000015 75.369476
v -0.000000 46.541428 75.369476
v -53.294258 46.541428 53.294270
v -53.294258 70.000015 53.294270
v 53.294258 70.000015 53.294270
v 53.294258 46.541428 53.294270
v -0.000000 46.541428 75.369476
v -0.000000 70.000015 75.369476
v 75.369461 70.000015 -0.000000
v 75.369461 46.541428 -0.000000
v 53.294258 46.541428 53.294270
v 53.294258 70.000015 53.294270
v 53.294258 70.000015 -53.294270
v 53.294258 46.541428 -53.294270
v 75.369461 46.541428 -0.000000
v 75.369461 70.000015 -0.000000
v 61.636757 -69.798355 -61.636772
v 87.167542 -70.201675 0.000000
v 62.733231 -69.798355 61.636772
v -1.096473 -69.798355 87.167564
v -61.636757 -69.798355 61.636772
v -87.167542 -69.798355 -0.000000
v -61.636757 -69.798355 -61.636772
v 0.000000 -69.798355 -87.167564
vt 0.000000 1.000000
vt 1.000000 1.000000
vt 1.000000 0.000000
vt 0.000000 0.000000
vt 0.000000 1.000000
vt 1.000000 1.000000
vt 1.000000 0.000000
vt 0.000000 0.000000
vt 0.000000 1.000000
vt 1.000000 1.000000
vt 1.000000 0.000000
vt 0.000000 0.000000
vt 0.000000 1.000000
vt 1.000000 1.000000
vt 1.000000 0.000000
vt 0.000000 0.000000
vt 0.000000 1.000000
vt 1.000000 1.000000
vt 1.000000 0.000000
vt 0.000000 0.000000
vt 0.000000 1.000000
vt 1.000000 1.000000
vt 1.000000 0.000000
vt 0.000000 0.000000
vt 0.000000 1.000000
vt 1.000000 1.000000
vt 1.000000 0.000000
vt 0.000000 0.000000
vt 0.000000 1.000000
vt 1.000000 1.000000
vt 1.000000 0.000000
vt 0.000000 0.000000
vt 0.125000 1.000000
vt 0.125000 0.666667
vt 0.000000 0.666667
vt 0.000000 1.000000
vt 0.125000 0.333333
vt 0.125000 0.000000
vt 0.000000 0.000000
vt 0.000000 0.333333
vt 0.250000 1.000000
vt 0.250000 0.666667
vt 0.250000 0.333333
vt 0.250000 0.000000
vt 0.375000 1.000000
vt 0.375000 0.666667
vt 0.375000 0.333333
vt 0.375000 0.000000
vt 0.500000 1.000000
vt 0.500000 0.666667
vt 0.500000 0.333333
vt 0.500000 0.000000
vt 0.625000 1.000000
vt 0.625000 0.666667
vt 0.625000 0.333333
vt 0.625000 0.000000
vt 0.750000 1.000000
vt 0.750000 0.666667
vt 0.750000 0.333333
vt 0.750000 0.000000
vt 0.875000 1.000000
vt 0.875000 0.666667
vt 0.875000 0.333333
vt 0.875000 0.000000
vt 1.000000 1.000000
vt 1.000000 0.666667
vt 1.000000 0.333333
vt 1.000000 0.000000
vt 0.000000 1.000000
vt 1.000000 1.000000
vt 1.000000 0.000000
vt 0.000000 0.000000
vt 0.000000 1.000000
vt 1.000000 1.000000
vt 1.000000 0.000000
vt 0.000000 0.000000
vt 0.000000 1.000000
vt 1.000000 1.000000
vt 1.000000 0.000000
vt 0.000000 0.000000
vt 0.000000 1.000000
vt 1.000000 1.000000
vt 1.000000 0.000000
vt 0.000000 0.000000
vt 0.000000 1.000000
vt 1.000000 1.000000
vt 1.000000 0.000000
vt 0.000000 0.000000
vt 0.000000 1.000000
vt 1.000000 1.000000
vt 1.000000 0.000000
vt 0.000000 0.000000
vt 0.000000 1.000000
vt 1.000000 1.000000
vt 1.000000 0.000000
vt 0.000000 0.000000
vt 0.000000 1.000000
vt 1.000000 1.000000
vt 1.000000 0.000000
vt 0.000000 0.000000
vt 0.853553 0.853553
vt 0.146447 0.853553
vt 0.500000 1.000000
vt 1.000000 0.500000
vt 0.000000 0.500000
vt 0.146447 0.146447
vt 0.859843 0.146447
vt 0.493711 0.000000
vn 0.0000 1.0000 0.0000
vn 0.7071 0.0000 -0.7071
vn 0.6067 -0.5136 -0.6067
vn 0.8594 -0.5112 -0.0021
vn 1.0000 0.0046 -0.0038
vn 0.6068 0.5135 -0.6067
vn 1.0000 -0.0000 0.0000
vn 0.8581 0.5135 0.0000
vn -0.0000 0.0000 -1.0000
vn -0.0000 -0.5136 -0.8581
vn 0.0000 0.5135 -0.8581
vn -0.7071 0.0000 -0.7071
vn -0.6068 -0.5136 -0.6067
vn -0.6067 0.5135 -0.6068
vn -1.0000 0.0000 0.0000
vn -0.8581 -0.5136 -0.0000
vn -0.8581 0.5135 0.0000
vn -0.7083 0.0019 0.7060
vn -0.6078 -0.5126 0.6065
vn -0.6068 0.5135 0.6067
vn -0.7071 0.0000 0.7071
vn -0.0047 0.0019 1.0000
vn -0.0026 -0.5126 0.8586
vn 0.0000 0.5135 0.8581
vn -0.0000 0.0000 1.0000
vn 0.7076 0.0045 0.7066
vn 0.6075 -0.5124 0.6069
vn 0.6067 0.5135 0.6068
vn 0.7071 0.0000 0.7071
vn 0.8594 -0.5113 -0.0022
vn -0.0011 -1.0000 -0.0012
vn 0.0000 -1.0000 0.0000
vn -0.0007 -1.0000 0.0016
vn -0.0012 -1.0000 -0.0011
vn -0.0006 -1.0000 0.0016
vn 0.0009 -1.0000 0.0055
usemtl Mat.8
s off
f 37/1/1 38/2/1 39/3/1
f 37/1/1 39/3/1 40/4/1
f 41/5/1 42/6/1 43/7/1
f 41/5/1 43/7/1 44/8/1
f 45/9/1 46/10/1 47/11/1
f 45/9/1 47/11/1 48/12/1
f 49/13/1 50/14/1 51/15/1
f 49/13/1 51/15/1 52/16/1
f 53/17/1 54/18/1 55/19/1
f 53/17/1 55/19/1 56/20/1
f 57/21/1 58/22/1 59/23/1
f 57/21/1 59/23/1 60/24/1
f 61/25/1 62/26/1 63/27/1
f 61/25/1 63/27/1 64/28/1
f 65/29/1 66/30/1 67/31/1
f 65/29/1 67/31/1 68/32/1
s 1
f 1/33/2 2/34/3 3/35/4
f 1/33/2 3/35/4 4/36/5
f 5/37/6 6/38/2 7/39/7
f 5/37/6 7/39/7 8/40/8
f 9/41/9 10/42/10 2/34/3
f 9/41/9 2/34/3 1/33/2
f 11/43/11 12/44/9 6/38/2
f 11/43/11 6/38/2 5/37/6
f 13/45/12 14/46/13 10/42/10
f 13/45/12 10/42/10 9/41/9
f 15/47/14 16/48/12 12/44/9
f 15/47/14 12/44/9 11/43/11
f 17/49/15 18/50/16 14/46/13
f 17/49/15 14/46/13 13/45/12
f 19/51/17 20/52/15 16/48/12
f 19/51/17 16/48/12 15/47/14
f 21/53/18 22/54/19 18/50/16
f 21/53/18 18/50/16 17/49/15
f 23/55/20 24/56/21 20/52/15
f 23/55/20 20/52/15 19/51/17
f 25/57/22 26/58/23 22/54/19
f 25/57/22 22/54/19 21/53/18
f 27/59/24 28/60/25 24/56/21
f 27/59/24 24/56/21 23/55/20
f 29/61/26 30/62/27 26/58/23
f 29/61/26 26/58/23 25/57/22
f 31/63/28 32/64/29 28/60/25
f 31/63/28 28/60/25 27/59/24
f 33/65/5 34/66/30 30/62/27
f 33/65/5 30/62/27 29/61/26
f 35/67/8 36/68/7 32/64/29
f 35/67/8 32/64/29 31/63/28
f 69/69/25 70/70/25 71/71/21
f 69/69/25 71/71/21 72/72/21
f 73/73/29 74/74/29 75/75/25
f 73/73/29 75/75/25 76/76/25
f 77/77/7 78/78/7 79/79/29
f 77/77/7 79/79/29 80/80/29
f 81/81/2 82/82/2 83/83/7
f 81/81/2 83/83/7 84/84/7
f 85/85/9 86/86/9 87/87/2
f 85/85/9 87/87/2 88/88/2
f 89/89/12 90/90/12 91/91/9
f 89/89/12 91/91/9 92/92/9
f 93/93/15 94/94/15 95/95/12
f 93/93/15 95/95/12 96/96/12
f 97/97/21 98/98/21 99/99/15
f 97/97/21 99/99/15 100/100/15
f 101/101/31 107/102/32 108/103/32
f 107/102/32 101/101/31 102/104/33
f 107/102/32 102/104/33 106/105/34
f 106/105/34 102/104/33 105/106/35
f 105/106/35 102/104/33 103/107/36
f 105/106/35 103/107/36 104/108/36
o Pot_Mat.9_0
v 0.000000 46.541428 -75.369476
v -53.294258 46.541428 -53.294270
v -75.369461 46.541428 -0.000000
v -53.294258 46.541428 53.294270
v -0.000000 46.541428 75.369476
v 53.294258 46.541428 53.294270
v 75.369461 46.541428 -0.000000
v 53.294258 46.541428 -53.294270
vt 0.189618 0.801795
vt 0.806634 0.804802
vt 0.496842 0.932473
vt 0.067197 0.494332
vt 0.932716 0.494870
vt 0.195377 0.193172
vt 0.801648 0.189404
vt 0.496295 0.067471
vn 0.0000 1.0000 0.0000
usemtl Mat.9
s off
f 110/109/37 116/110/37 109/111/37
f 116/110/37 110/109/37 111/112/37
f 116/110/37 111/112/37 115/113/37
f 115/113/37 111/112/37 112/114/37
f 115/113/37 112/114/37 114/115/37
f 114/115/37 112/114/37 113/116/37
o Pot_Mat.7_0
v 0.000000 10.167439 -87.167564
v 0.000000 7.267437 -92.167526
v -65.172264 7.267437 -65.172279
v -61.636757 10.167439 -61.636772
v 65.172264 -7.267437 -65.172279
v 65.172264 7.267437 -65.172279
v 92.167503 7.267437 0.000000
v 92.167503 -7.267437 0.000000
v -61.636757 -10.167439 61.636772
v -65.172264 -7.267437 65.172279
v -92.167503 -7.267437 -0.000000
v -87.167542 -10.167439 -0.000000
v -92.167503 -7.267437 -0.000000
v -65.172264 -7.267437 -65.172279
v -61.636757 -10.167439 -61.636772
v 0.000000 -7.267437 -92.167526
v 0.000000 7.267437 -92.167526
v 65.172264 7.267437 -65.172279
v 65.172264 -7.267437 -65.172279
v -87.167542 10.167439 -0.000000
v -92.167503 7.267437 -0.000000
v -65.172264 7.267437 65.172279
v -61.636757 10.167439 61.636772
v -65.172264 7.267437 -65.172279
v -92.167503 7.267437 -0.000000
v -65.172264 -7.267437 -65.172279
v 0.000000 -7.267437 -92.167526
v -0.000000 -10.167439 87.167564
v -0.000000 -7.267437 92.167526
v -65.172264 -7.267437 65.172279
v 61.636757 -10.167439 -61.636772
v 87.167542 -10.167439 0.000000
v -65.172264 7.267437 65.172279
v -0.000000 7.267437 92.167526
v -0.000000 10.167439 87.167564
v 87.167542 10.167439 0.000000
v 61.636757 10.167439 -61.636772
v 61.636757 -10.167439 61.636772
v 65.172264 -7.267437 65.172279
v -0.000000 -7.267437 92.167526
v 0.000000 -10.167439 -87.167564
v -0.000000 7.267437 92.167526
v 65.172264 7.267437 65.172279
v 61.636757 10.167439 61.636772
v 87.167542 -10.167439 0.000000
v 92.167503 -7.267437 0.000000
v 65.172264 -7.267437 65.172279
v 92.167503 7.267437 0.000000
v 65.172264 7.267437 65.172279
v 87.167542 10.167439 0.000000
vt 0.250000 0.333333
vt 0.251515 0.337374
vt 0.373485 0.337374
vt 0.375000 0.333333
vt 0.123485 0.662626
vt 0.123485 0.337374
vt 0.001515 0.337374
vt 0.001515 0.662626
vt 0.625000 0.666667
vt 0.623485 0.662626
vt 0.501515 0.662626
vt 0.500000 0.666667
vt 0.498485 0.662626
vt 0.376515 0.662626
vt 0.375000 0.666667
vt 0.248485 0.662626
vt 0.248485 0.337374
vt 0.126515 0.337374
vt 0.126515 0.662626
vt 0.500000 0.333333
vt 0.501515 0.337374
vt 0.623485 0.337374
vt 0.625000 0.333333
vt 0.376515 0.337374
vt 0.498485 0.337374
vt 0.373485 0.662626
vt 0.251515 0.662626
vt 0.750000 0.666667
vt 0.748485 0.662626
vt 0.626515 0.662626
vt 0.125000 0.666667
vt 0.000000 0.666667
vt 0.626515 0.337374
vt 0.748485 0.337374
vt 0.750000 0.333333
vt 0.000000 0.333333
vt 0.125000 0.333333
vt 0.875000 0.666667
vt 0.873485 0.662626
vt 0.751515 0.662626
vt 0.250000 0.666667
vt 0.751515 0.337374
vt 0.873485 0.337374
vt 0.875000 0.333333
vt 1.000000 0.666667
vt 0.998485 0.662626
vt 0.876515 0.662626
vt 0.998485 0.337374
vt 0.876515 0.337374
vt 1.000000 0.333333
vn -0.0000 0.5135 -0.8581
vn -0.6067 0.5135 -0.6067
vn -0.6067 0.5135 -0.6068
vn 0.6067 -0.5135 -0.6067
vn 0.6067 0.5135 -0.6067
vn 0.8581 0.5135 -0.0000
vn 0.8581 -0.5135 0.0000
vn -0.6078 -0.5126 0.6065
vn -0.6067 -0.5135 0.6067
vn -0.8581 -0.5135 -0.0000
vn -0.6067 -0.5135 -0.6067
vn -0.6068 -0.5135 -0.6067
vn 0.0000 -0.5135 -0.8581
vn -0.8581 0.5135 0.0000
vn -0.6067 0.5135 0.6067
vn -0.6068 0.5135 0.6067
vn -0.6068 0.5135 -0.6067
vn -0.0026 -0.5126 0.8586
vn -0.0000 -0.5135 0.8581
vn 0.6068 -0.5135 -0.6067
vn 0.8594 -0.5113 -0.0021
vn -0.6067 0.5135 0.6068
vn 0.0000 0.5135 0.8581
vn 0.6068 0.5135 -0.6067
vn 0.6075 -0.5124 0.6069
vn 0.6067 -0.5135 0.6067
vn 0.6067 -0.5135 -0.6068
vn 0.6067 0.5135 0.6067
vn 0.6067 0.5135 0.6068
vn 0.6067 0.5135 -0.6068
vn 0.8594 -0.5113 -0.0022
vn -0.6067 -0.5135 -0.6068
vn 0.6068 0.5135 0.6067
usemtl Mat.7
s 1
f 117/117/38 118/118/38 119/119/39
f 117/117/38 119/119/39 120/120/40
f 121/121/41 122/122/42 123/123/43
f 121/121/41 123/123/43 124/124/44
f 125/125/45 126/126/46 127/127/47
f 125/125/45 127/127/47 128/128/47
f 128/128/47 129/129/47 130/130/48
f 128/128/47 130/130/48 131/131/49
f 132/132/50 133/133/38 134/134/42
f 132/132/50 134/134/42 135/135/41
f 136/136/51 137/137/51 138/138/52
f 136/136/51 138/138/52 139/139/53
f 120/120/54 140/140/39 141/141/51
f 120/120/54 141/141/51 136/136/51
f 142/142/48 119/119/39 118/118/38
f 142/142/48 118/118/38 143/143/50
f 144/144/55 145/145/56 146/146/46
f 144/144/55 146/146/46 125/125/45
f 147/147/57 121/121/41 124/124/44
f 147/147/57 124/124/44 148/148/58
f 129/129/47 141/141/51 140/140/39
f 129/129/47 140/140/39 130/130/48
f 139/139/59 149/149/52 150/150/60
f 139/139/59 150/150/60 151/151/60
f 152/152/43 123/123/43 122/122/42
f 152/152/43 122/122/42 153/153/61
f 126/126/46 138/138/52 137/137/51
f 126/126/46 137/137/51 127/127/47
f 154/154/62 155/155/63 156/156/56
f 154/154/62 156/156/56 144/144/55
f 157/157/50 132/132/50 135/135/41
f 157/157/50 135/135/41 147/147/64
f 145/145/56 150/150/60 149/149/52
f 145/145/56 149/149/52 146/146/46
f 151/151/60 158/158/60 159/159/65
f 151/151/60 159/159/65 160/160/66
f 153/153/67 134/134/42 133/133/38
f 153/153/67 133/133/38 117/117/38
f 155/155/63 159/159/65 158/158/60
f 155/155/63 158/158/60 156/156/56
f 161/161/68 162/162/44 163/163/63
f 161/161/68 163/163/63 154/154/62
f 131/131/69 142/142/48 143/143/50
f 131/131/69 143/143/50 157/157/50
f 162/162/44 164/164/43 165/165/65
f 162/162/44 165/165/65 163/163/63
f 160/160/70 165/165/65 164/164/43
f 160/160/70 164/164/43 166/166/43
