{
  "accessors": [
    {
      "bufferView": 2,
      "componentType": 5126,
      "count": 3689,
      "max": [
        4.5971798896789551,
        2.7755093574523926,
        1.7624599933624268
      ],
      "min": [
        -2.9383587837219238,
        -1.1935352087020874,
        -1.6281131505966187
      ],
      "type": "VEC3"
    },
    {
      "bufferView": 2,
      "byteOffset": 44268,
      "componentType": 5126,
      "count": 3689,
      "max": [
        1,
        1,
        1
      ],
      "min": [
        -1,
        -1,
        -1
      ],
      "type": "VEC3"
    },
    {
      "bufferView": 1,
      "componentType": 5126,
      "count": 3689,
      "max": [
        0.46182125806808472,
        1.8541697263717651
      ],
      "min": [
        0.0028829872608184814,
        0.0044116973876953125
      ],
      "type": "VEC2"
    },
    {
      "bufferView": 0,
      "componentType": 5125,
      "count": 9252,
      "max": [
        3688
      ],
      "min": [
        0
      ],
      "type": "SCALAR"
    },
    {
      "bufferView": 2,
      "byteOffset": 88536,
      "componentType": 5126,
      "count": 1644,
      "max": [
        2.6007020473480225,
        1.5387363433837891,
        1.4273097515106201
      ],
      "min": [
        -2.2615966796875,
        -0.57410955429077148,
        -1.3024909496307373
      ],
      "type": "VEC3"
    },
    {
      "bufferView": 2,
      "byteOffset": 108264,
      "componentType": 5126,
      "count": 1644,
      "max": [
        0.997519850730896,
        0.99913150072097778,
        0.99955683946609497
      ],
      "min": [
        -0.99753612279891968,
        -0.99729007482528687,
        -0.99926221370697021
      ],
      "type": "VEC3"
    },
    {
      "bufferView": 1,
      "byteOffset": 29512,
      "componentType": 5126,
      "count": 1644,
      "max": [
        0.65625,
        1
      ],
      "min": [
        0.34374997019767761,
        -7.4505805969238281e-08
      ],
      "type": "VEC2"
    },
    {
      "bufferView": 0,
      "byteOffset": 37008,
      "componentType": 5125,
      "count": 3186,
      "max": [
        1643
      ],
      "min": [
        0
      ],
      "type": "SCALAR"
    },
    {
      "bufferView": 2,
      "byteOffset": 127992,
      "componentType": 5126,
      "count": 1432,
      "max": [
        2.6699376106262207,
        1.5983014106750488,
        1.2220146656036377
      ],
      "min": [
        -2.5109920501708984,
        -0.64586830139160156,
        -1.1765179634094238
      ],
      "type": "VEC3"
    },
    {
      "bufferView": 2,
      "byteOffset": 145176,
      "componentType": 5126,
      "count": 1432,
      "max": [
        0.99998337030410767,
        0.9999924898147583,
        0.99996590614318848
      ],
      "min": [
        -0.9999966025352478,
        -0.99927413463592529,
        -0.99999946355819702
      ],
      "type": "VEC3"
    },
    {
      "bufferView": 1,
      "byteOffset": 42664,
      "componentType": 5126,
      "count": 1432,
      "max": [
        0.93314677476882935,
        0.78176611661911011
      ],
      "min": [
        0.041126519441604614,
        0.052811324596405029
      ],
      "type": "VEC2"
    },
    {
      "bufferView": 1,
      "byteOffset": 54120,
      "componentType": 5126,
      "count": 1432,
      "max": [
        0.93314677476882935,
        0.78176611661911011
      ],
      "min": [
        0.041126519441604614,
        0.052811324596405029
      ],
      "type": "VEC2"
    },
    {
      "bufferView": 0,
      "byteOffset": 49752,
      "componentType": 5125,
      "count": 4980,
      "max": [
        1431
      ],
      "min": [
        0
      ],
      "type": "SCALAR"
    }
  ],
  "asset": {
    "extras": {
      "author": "Vector Creative (https://sketchfab.com/vectorcreativenz)",
      "license": "CC-BY-4.0 (http://creativecommons.org/licenses/by/4.0/)",
      "source": "https://sketchfab.com/3d-models/cartoon-cannon-58a356b7da9d4691879d301f9f86593b",
      "title": "Cartoon Cannon"
    },
    "generator": "Sketchfab-8.16.0",
    "version": "2.0"
  },
  "bufferViews": [
    {
      "buffer": 0,
      "byteLength": 69672,
      "byteOffset": 0,
      "name": "floatBufferViews",
      "target": 34963
    },
    {
      "buffer": 0,
      "byteLength": 65576,
      "byteOffset": 69672,
      "byteStride": 8,
      "name": "floatBufferViews",
      "target": 34962
    },
    {
      "buffer": 0,
      "byteLength": 162360,
      "byteOffset": 135248,
      "byteStride": 12,
      "name": "floatBufferViews",
      "target": 34962
    }
  ],
  "buffers": [
    {
      "byteLength": 297608,
      "uri": "scene.bin"
    }
  ],
  "images": [
    {
      "uri": "textures/WHEELTEXT_baseColor.jpeg"
    },
    {
      "uri": "textures/Wood_text_baseColor.jpeg"
    }
  ],
  "materials": [
    {
      "doubleSided": true,
      "emissiveFactor": [
        0,
        0,
        0
      ],
      "name": "WHEELTEXT",
      "pbrMetallicRoughness": {
        "baseColorFactor": [
          1,
          1,
          1,
          1
        ],
        "baseColorTexture": {
          "index": 0,
          "texCoord": 0
        },
        "metallicFactor": 0,
        "roughnessFactor": 1
      }
    },
    {
      "doubleSided": true,
      "emissiveFactor": [
        0,
        0,
        0
      ],
      "name": "metal_shiny",
      "pbrMetallicRoughness": {
        "baseColorFactor": [
          0.118881,
          0.118881,
          0.118881,
          1
        ],
        "metallicFactor": 0,
        "roughnessFactor": 0.58382085497121827
      }
    },
    {
      "doubleSided": true,
      "emissiveFactor": [
        0,
        0,
        0
      ],
      "name": "Wood_text",
      "pbrMetallicRoughness": {
        "baseColorFactor": [
          1,
          1,
          1,
          1
        ],
        "baseColorTexture": {
          "index": 1,
          "texCoord": 0
        },
        "metallicFactor": 0,
        "roughnessFactor": 1
      }
    }
  ],
  "meshes": [
    {
      "name": "pCylinder2_WHEELTEXT_0",
      "primitives": [
        {
          "attributes": {
            "NORMAL": 1,
            "POSITION": 0,
            "TEXCOORD_0": 2
          },
          "indices": 3,
          "material": 0,
          "mode": 4
        }
      ]
    },
    {
      "name": "pCylinder2_metal_shiny_0",
      "primitives": [
        {
          "attributes": {
            "NORMAL": 5,
            "POSITION": 4,
            "TEXCOORD_0": 6
          },
          "indices": 7,
          "material": 1,
          "mode": 4
        }
      ]
    },
    {
      "name": "pCylinder2_Wood_text_0",
      "primitives": [
        {
          "attributes": {
            "NORMAL": 9,
            "POSITION": 8,
            "TEXCOORD_0": 10,
            "TEXCOORD_1": 11
          },
          "indices": 12,
          "material": 2,
          "mode": 4
        }
      ]
    }
  ],
  "nodes": [
    {
      "children": [
        1
      ],
      "name": "RootNode (gltf orientation matrix)",
      "rotation": [
        -0.70710678118654746,
        -0,
        -0,
        0.70710678118654757
      ]
    },
    {
      "children": [
        2
      ],
      "matrix": [
        0.27584263682365417,
        0,
        0,
        0,
        0,
        0.27584263682365417,
        0,
        0,
        0,
        0,
        0.27584263682365417,
        0,
        0,
        0,
        0,
        1
      ],
      "name": "RootNode (model correction matrix)"
    },
    {
      "children": [
        3
      ],
      "matrix": [
        1,
        0,
        0,
        0,
        0,
        0,
        1,
        0,
        0,
        -1,
        0,
        0,
        0,
        0,
        0,
        1
      ],
      "name": "76e4fffcdf5d4c6bbf8e4debd808886e.fbx"
    },
    {
      "children": [
        4
      ],
      "name": "RootNode"
    },
    {
      "children": [
        5,
        6,
        7
      ],
      "name": "pCylinder2"
    },
    {
      "mesh": 0,
      "name": "pCylinder2_WHEELTEXT_0"
    },
    {
      "mesh": 1,
      "name": "pCylinder2_metal_shiny_0"
    },
    {
      "mesh": 2,
      "name": "pCylinder2_Wood_text_0"
    }
  ],
  "samplers": [
    {
      "magFilter": 9729,
      "minFilter": 9987,
      "wrapS": 10497,
      "wrapT": 10497
    }
  ],
  "scene": 0,
  "scenes": [
    {
      "name": "OSG_Scene",
      "nodes": [
        0
      ]
    }
  ],
  "textures": [
    {
      "sampler": 0,
      "source": 0
    },
    {
      "sampler": 0,
      "source": 1
    }
  ]
}

