{
  "accessors": [
    {
      "bufferView": 2,
      "componentType": 5126,
      "count": 732,
      "max": [
        52.203464508056641,
        242.72982788085938,
        26.141088485717773
      ],
      "min": [
        -405.80718994140625,
        -249.22882080078125,
        -91.996986389160156
      ],
      "type": "VEC3"
    },
    {
      "bufferView": 2,
      "byteOffset": 8784,
      "componentType": 5126,
      "count": 732,
      "max": [
        0.99619466066360474,
        1,
        0.99513399600982666
      ],
      "min": [
        -0.99619472026824951,
        -1,
        -0.99513393640518188
      ],
      "type": "VEC3"
    },
    {
      "bufferView": 1,
      "componentType": 5126,
      "count": 732,
      "max": [
        0.95859509706497192,
        0.92968630790710449
      ],
      "min": [
        0.28315293788909912,
        0.5999298095703125
      ],
      "type": "VEC2"
    },
    {
      "bufferView": 0,
      "componentType": 5125,
      "count": 828,
      "max": [
        731
      ],
      "min": [
        0
      ],
      "type": "SCALAR"
    }
  ],
  "asset": {
    "extras": {
      "author": "Cianon (https://sketchfab.com/Cianon)",
      "license": "CC-BY-4.0 (http://creativecommons.org/licenses/by/4.0/)",
      "source": "https://sketchfab.com/3d-models/campfire-low-poly-26eb5c7a715746c082da9f43146941db",
      "title": "Campfire Low-Poly"
    },
    "generator": "Sketchfab-9.41.0",
    "version": "2.0"
  },
  "bufferViews": [
    {
      "buffer": 0,
      "byteLength": 3312,
      "byteOffset": 0,
      "name": "floatBufferViews",
      "target": 34963
    },
    {
      "buffer": 0,
      "byteLength": 5856,
      "byteOffset": 3312,
      "byteStride": 8,
      "name": "floatBufferViews",
      "target": 34962
    },
    {
      "buffer": 0,
      "byteLength": 17568,
      "byteOffset": 9168,
      "byteStride": 12,
      "name": "floatBufferViews",
      "target": 34962
    }
  ],
  "buffers": [
    {
      "byteLength": 26736,
      "uri": "scene.bin"
    }
  ],
  "images": [
    {
      "uri": "textures/Material_2_baseColor.png"
    }
  ],
  "materials": [
    {
      "doubleSided": true,
      "emissiveFactor": [
        0,
        0,
        0
      ],
      "name": "Material_2",
      "pbrMetallicRoughness": {
        "baseColorFactor": [
          1,
          1,
          1,
          1
        ],
        "baseColorTexture": {
          "index": 0,
          "texCoord": 0
        },
        "metallicFactor": 0,
        "roughnessFactor": 0.89297135964975516
      }
    }
  ],
  "meshes": [
    {
      "name": "GeoSphere004_Material #2_0",
      "primitives": [
        {
          "attributes": {
            "NORMAL": 1,
            "POSITION": 0,
            "TEXCOORD_0": 2
          },
          "indices": 3,
          "material": 0,
          "mode": 4
        }
      ]
    }
  ],
  "nodes": [
    {
      "children": [
        1
      ],
      "name": "RootNode (gltf orientation matrix)",
      "rotation": [
        -0.70710678118654746,
        -0,
        -0,
        0.70710678118654757
      ]
    },
    {
      "children": [
        2
      ],
      "name": "RootNode (model correction matrix)"
    },
    {
      "children": [
        3
      ],
      "matrix": [
        1,
        0,
        0,
        0,
        0,
        0,
        1,
        0,
        0,
        -1,
        0,
        0,
        0,
        0,
        0,
        1
      ],
      "name": "8679f67066d3433d9b79b60f341b3fef.fbx"
    },
    {
      "children": [
        4
      ],
      "name": "RootNode"
    },
    {
      "children": [
        5
      ],
      "matrix": [
        0.008010962747756728,
        -5.1023072713975787e-18,
        -0.091565228434861881,
        0,
        0.09156522843485701,
        -2.9949709068089561e-08,
        0.0080109627477562909,
        0,
        -3.4971910906959167e-08,
        -0.10773800313472175,
        -3.0596622727281187e-09,
        0,
        0.46347150206565857,
        1.7763568394002505e-14,
        -15.87769889831543,
        1
      ],
      "name": "GeoSphere004"
    },
    {
      "children": [
        6
      ],
      "matrix": [
        1,
        0,
        -0,
        0,
        0,
        1,
        0,
        0,
        0,
        0,
        1,
        0,
        -9.2820587158203125,
        -0.97228240966796875,
        0,
        1
      ],
      "name": ""
    },
    {
      "mesh": 0,
      "name": "GeoSphere004_Material #2_0"
    }
  ],
  "samplers": [
    {
      "magFilter": 9729,
      "minFilter": 9987,
      "wrapS": 10497,
      "wrapT": 10497
    }
  ],
  "scene": 0,
  "scenes": [
    {
      "name": "OSG_Scene",
      "nodes": [
        0
      ]
    }
  ],
  "textures": [
    {
      "sampler": 0,
      "source": 0
    }
  ]
}

