{
  "accessors": [
    {
      "bufferView": 1,
      "componentType": 5126,
      "count": 1984,
      "max": [
        1.4594672918319702,
        1.6903436183929443,
        2.67034912109375
      ],
      "min": [
        -1.2466068267822266,
        -2.2295570373535156,
        -0.99519634246826172
      ],
      "type": "VEC3"
    },
    {
      "bufferView": 1,
      "byteOffset": 23808,
      "componentType": 5126,
      "count": 1984,
      "max": [
        0.98423022031784058,
        0.9994233250617981,
        0.99573624134063721
      ],
      "min": [
        -0.99035835266113281,
        -0.98988837003707886,
        -0.99625629186630249
      ],
      "type": "VEC3"
    },
    {
      "bufferView": 2,
      "componentType": 5126,
      "count": 1984,
      "max": [
        0.99939060211181641,
        0.99846535921096802,
        0.99857968091964722,
        1
      ],
      "min": [
        -0.99931424856185913,
        -0.99660074710845947,
        -1,
        -1
      ],
      "type": "VEC4"
    },
    {
      "bufferView": 2,
      "byteOffset": 31744,
      "componentType": 5126,
      "count": 1984,
      "max": [
        1,
        1,
        1,
        1
      ],
      "min": [
        0.058823529630899429,
        0.058823529630899429,
        0,
        1
      ],
      "type": "VEC4"
    },
    {
      "bufferView": 0,
      "componentType": 5125,
      "count": 2880,
      "max": [
        1983
      ],
      "min": [
        0
      ],
      "type": "SCALAR"
    },
    {
      "bufferView": 1,
      "byteOffset": 47616,
      "componentType": 5126,
      "count": 664,
      "max": [
        2.5000009536743164,
        2.5,
        1.7000000476837158
      ],
      "min": [
        -2.5000009536743164,
        -2.5,
        -1
      ],
      "type": "VEC3"
    },
    {
      "bufferView": 1,
      "byteOffset": 55584,
      "componentType": 5126,
      "count": 664,
      "max": [
        0.96592611074447632,
        0.96592587232589722,
        1
      ],
      "min": [
        -0.96592611074447632,
        -0.96592593193054199,
        -1
      ],
      "type": "VEC3"
    },
    {
      "bufferView": 0,
      "byteOffset": 11520,
      "componentType": 5125,
      "count": 1032,
      "max": [
        663
      ],
      "min": [
        0
      ],
      "type": "SCALAR"
    },
    {
      "bufferView": 1,
      "byteOffset": 63552,
      "componentType": 5126,
      "count": 312,
      "max": [
        2.7500009536743164,
        2.75,
        1.7024999856948853
      ],
      "min": [
        -2.7500009536743164,
        -2.75,
        1.147784948348999
      ],
      "type": "VEC3"
    },
    {
      "bufferView": 1,
      "byteOffset": 67296,
      "componentType": 5126,
      "count": 312,
      "max": [
        1,
        1,
        0.99995797872543335
      ],
      "min": [
        -1,
        -1,
        -0.99995797872543335
      ],
      "type": "VEC3"
    },
    {
      "bufferView": 0,
      "byteOffset": 15648,
      "componentType": 5125,
      "count": 468,
      "max": [
        311
      ],
      "min": [
        0
      ],
      "type": "SCALAR"
    }
  ],
  "asset": {
    "extras": {
      "author": "Jeff Harper Designs (https://sketchfab.com/jeffharperdesigns)",
      "license": "CC-BY-4.0 (http://creativecommons.org/licenses/by/4.0/)",
      "source": "https://sketchfab.com/models/e1c67aa4289b4b539277f5285b0f6658",
      "title": "Torch"
    },
    "generator": "Sketchfab-3.18.2",
    "version": "2.0"
  },
  "bufferViews": [
    {
      "buffer": 0,
      "byteLength": 17520,
      "byteOffset": 0,
      "name": "floatBufferViews",
      "target": 34963
    },
    {
      "buffer": 0,
      "byteLength": 71040,
      "byteOffset": 17520,
      "byteStride": 12,
      "name": "floatBufferViews",
      "target": 34962
    },
    {
      "buffer": 0,
      "byteLength": 63488,
      "byteOffset": 88560,
      "byteStride": 16,
      "name": "floatBufferViews",
      "target": 34962
    }
  ],
  "buffers": [
    {
      "byteLength": 152048,
      "uri": "scene.bin"
    }
  ],
  "materials": [
    {
      "doubleSided": true,
      "emissiveFactor": [
        0,
        0,
        0
      ],
      "name": "Tourch_fire",
      "pbrMetallicRoughness": {
        "baseColorFactor": [
          0.69999999999999996,
          0.69999999999999996,
          0.69999999999999996,
          1
        ],
        "metallicFactor": 0,
        "roughnessFactor": 0.59999999999999998
      }
    },
    {
      "doubleSided": true,
      "emissiveFactor": [
        0,
        0,
        0
      ],
      "name": "Torch_wood",
      "pbrMetallicRoughness": {
        "baseColorFactor": [
          0.18126720000000002,
          0.052103759999999999,
          0.0080315200000000003,
          1
        ],
        "metallicFactor": 0,
        "roughnessFactor": 0.59999999999999998
      }
    },
    {
      "doubleSided": true,
      "emissiveFactor": [
        0,
        0,
        0
      ],
      "name": "Torch_metal",
      "pbrMetallicRoughness": {
        "baseColorFactor": [
          0.080000000000000016,
          0.080000000000000016,
          0.080000000000000016,
          1
        ],
        "metallicFactor": 0,
        "roughnessFactor": 0.59999999999999998
      }
    }
  ],
  "meshes": [
    {
      "name": "Sphere_Tourch_fire_0",
      "primitives": [
        {
          "attributes": {
            "COLOR_0": 3,
            "NORMAL": 1,
            "POSITION": 0,
            "TANGENT": 2
          },
          "indices": 4,
          "material": 0,
          "mode": 4
        }
      ]
    },
    {
      "name": "Cylinder_Torch_wood_0",
      "primitives": [
        {
          "attributes": {
            "NORMAL": 6,
            "POSITION": 5
          },
          "indices": 7,
          "material": 1,
          "mode": 4
        }
      ]
    },
    {
      "name": "Cylinder_Torch_metal_0",
      "primitives": [
        {
          "attributes": {
            "NORMAL": 9,
            "POSITION": 8
          },
          "indices": 10,
          "material": 2,
          "mode": 4
        }
      ]
    }
  ],
  "nodes": [
    {
      "children": [
        1
      ],
      "name": "RootNode (gltf orientation matrix)",
      "rotation": [
        -0.70710678118654746,
        -0,
        -0,
        0.70710678118654757
      ]
    },
    {
      "children": [
        2
      ],
      "name": "RootNode (model correction matrix)"
    },
    {
      "children": [
        3
      ],
      "matrix": [
        1,
        0,
        0,
        0,
        0,
        0,
        1,
        0,
        0,
        -1,
        0,
        0,
        0,
        0,
        0,
        1
      ],
      "name": "0688bfb5a7c343daa2a4b2117de635d8.fbx"
    },
    {
      "children": [
        4,
        6
      ],
      "name": "RootNode"
    },
    {
      "children": [
        5
      ],
      "matrix": [
        0.32808226346969604,
        0,
        0,
        0,
        0,
        -5.3451385260892713e-08,
        -0.32808226346969172,
        0,
        0,
        0.32808226346969172,
        -5.3451385260892713e-08,
        0,
        0,
        5.3412928581237793,
        0,
        1
      ],
      "name": "Sphere"
    },
    {
      "mesh": 0,
      "name": "Sphere_Tourch_fire_0"
    },
    {
      "children": [
        7,
        8
      ],
      "matrix": [
        0.15000000596046448,
        0,
        0,
        0,
        0,
        -2.4438102879857634e-08,
        -0.15000000596046251,
        0,
        0,
        1.9999999999999736,
        -3.2584135878366283e-07,
        0,
        0,
        2,
        0,
        1
      ],
      "name": "Cylinder"
    },
    {
      "mesh": 1,
      "name": "Cylinder_Torch_wood_0"
    },
    {
      "mesh": 2,
      "name": "Cylinder_Torch_metal_0"
    }
  ],
  "scene": 0,
  "scenes": [
    {
      "name": "OSG_Scene",
      "nodes": [
        0
      ]
    }
  ]
}

